ply
format ascii 1.0
element vertex 362
property float x
property float y
property float z
property float nx
property float ny
property float nz
element face 720
property list uint int vertex_indices
end_header
0 0 -0.735003352 0.0847635344 -0.0209535249 -0.996180773
-0.177580327 0.331762135 -0.727511644 0.143678546 0.295938611 -0.944339335
0.284662068 0.0726657957 -0.685516179 0.220153794 0.147319913 -0.964276552
-0.177580327 0.535249114 -0.585713029 0.0108036799 0.82888031 -0.559321761
0.296070039 0.320152879 -0.584073603 0.20781748 0.639301538 -0.740341425
0.598011196 0.135546833 -0.641186118 0.424727708 0.405041158 -0.809659123
0 0.583057702 -0.328703165 0.0764225721 0.975751102 -0.20510824
0.284662098 0.511303961 -0.379853755 0.359928071 0.834014595 -0.418176293
0.530993223 0.370698035 -0.379853785 0.45577693 0.765631258 -0.453956306
0.772838235 0.180175021 -0.42617166 0.802643657 0.473229945 -0.36306563
0.175930828 -0.190241218 -0.685516179 0.00241443515 -0.476715356 -0.879054368
0.546069443 -0.122287348 -0.681542039 0.310491294 -0.348797917 -0.884270966
0.328171849 -0.35486567 -0.543717623 0.0873173475 -0.769082785 -0.633156538
0.773942173 -0.0546944588 -0.47732234 0.936922133 -0.131182894 -0.323987722
0.679852128 -0.282199949 -0.4773224 0.609988391 -0.659156144 -0.43980369
0.472502738 -0.463811636 -0.191713765 0.322707474 -0.878153384 -0.353138089
-0.353511155 -0.0936302394 -0.727511644 -0.138771415 -0.624786079 -0.768365026
-0.143829107 -0.299119592 -0.53416878 -0.149982646 -0.731104016 -0.665576518
-0.472000957 -0.258254707 -0.493812799 -0.353489935 -0.747172415 -0.562830508
0.188522786 -0.537214994 -0.242864385 0.0924827531 -0.866487145 -0.49055782
-0.296070099 -0.448496044 -0.329949051 -0.0693181828 -0.745773256 -0.662583709
-0.580050051 -0.375092626 -0.278798431 -0.42876938 -0.68815738 -0.585317254
-0.462242395 0.169276774 -0.727511644 -0.42228967 0.128526583 -0.897302806
-0.656631827 -0.0256763697 -0.626069069 -0.509644628 -0.352614135 -0.784809351
-0.70857358 0.232157797 -0.585713089 -0.664441764 0.144554794 -0.733226418
-0.756663263 -0.185588971 -0.329949111 -0.653639615 -0.622197211 -0.430843204
-0.850753307 0.0419165194 -0.329949051 -0.878683031 -0.181450114 -0.441579014
-0.84964937 0.276786 -0.278798372 -0.827719569 0.384645641 -0.408568144
-0.473650366 0.416763872 -0.626069069 -0.329271913 0.641415954 -0.692939818
-0.70857358 0.467308998 -0.421849251 -0.607037365 0.632938802 -0.480514467
-0.462242424 0.607914925 -0.421849221 -0.151624277 0.843623817 -0.515081644
-0.197303802 0.689343631 -0.0742187649 0.0760759786 0.993058681 -0.0897049904
-0.698740363 0.675093412 -0.0357623845 -0.482880294 0.86708051 0.122466266
-0.404031813 0.650481105 0.166931033 -0.208615452 0.908181846 0.36288473
-0.905239999 0.422399014 -0.0530971885 -0.928152859 0.36873582 0.0506580994
-0.688693941 0.487995744 0.166931033 -0.668772757 0.657292247 0.347433448
-0.512080967 0.532167912 0.380917013 -0.215853304 0.845751524 0.487966985
-1.01397145 0.159491986 -0.0530972108 -0.989847302 0.107888825 0.0925325602
-0.918950558 -0.101254269 -0.0879761279 -0.846740127 -0.531616509 0.0203691665
-0.815655291 -0.0628810078 0.114717282 -0.872230589 -0.261354417 0.413409859
-0.612833917 -0.427531421 -0.114717282 -0.727603555 -0.679339468 -0.0953464583
-0.706923842 -0.325788021 0.11471726 -0.810353994 -0.509751022 0.288929731
-0.705820262 -0.180175021 0.328703195 -0.663289487 -0.632263362 0.400362313
-0.32817179 -0.590016782 -0.114717282 -0.30964005 -0.908884406 -0.279378265
0.0362818018 -0.632413387 -0.000891461968 0.0895988867 -0.980607331 -0.174302518
-0.139649034 -0.620987296 0.251706719 -0.170043781 -0.985323548 -0.0149178179
0.364453584 -0.582124829 0.0222722068 0.229441985 -0.94946593 -0.214174598
0.223740637 -0.641335547 0.262099802 0.10099376 -0.992971003 0.0617174618
0.0115280151 -0.603405952 0.339096248 -0.0733968094 -0.698119164 0.712209642
0.612833917 -0.427531421 -0.114717282 0.656186283 -0.728652894 -0.196174547
0.77512145 -0.197865248 -0.137880951 0.899686873 -0.389591008 -0.19693248
0.718451858 -0.346136272 0.125110343 0.744315445 -0.626805365 0.230455011
0.815655291 0.0628810078 -0.114717282 0.987747073 0.154939294 0.018690601
0.827183306 -0.0832292587 0.125110358 0.966072023 -0.106660157 0.235220268
0.717348278 -0.200523272 0.339096278 0.867450833 -0.368814528 0.333923608
0.706923842 0.325788021 -0.11471726 0.85705626 0.515140831 -0.0091900453
0.479051322 0.518018067 -0.137880951 0.435738146 0.833559394 -0.339574873
0.612833917 0.427531421 0.114717282 0.706953883 0.688496947 0.161827266
0.175930828 0.628879309 -0.11471726 0.148927271 0.959730744 -0.238196224
0.329623163 0.590016782 0.121111162 0.331907094 0.933208644 0.137693018
0.437672317 0.471703619 0.335097134 0.509622514 0.713373721 0.481022775
-0.0199215934 0.700769722 0.184773326 0.160097539 0.984409094 0.0728519857
-0.172162563 0.60557133 0.426746249 -0.220858321 0.831551731 0.50965029
0.132319391 0.60557133 0.426746249 0.307065964 0.893027306 0.328957021
-0.82960856 0.197865292 0.149596229 -0.915696502 0.151640162 0.372162968
-0.782784224 0.115158781 0.432067633 -0.823813379 -0.0874935016 0.560068309
-0.688694179 0.342664272 0.432067692 -0.701581061 0.504880011 0.502872169
-0.479051322 -0.518018067 0.137880951 -0.437595755 -0.89584738 0.077248551
-0.284662098 -0.511303961 0.379853755 -0.213224307 -0.733180165 0.645741701
-0.530993223 -0.370698035 0.379853785 -0.621292472 -0.504481792 0.599578083
0.490579337 -0.538366318 0.148274034 0.467212915 -0.838167906 0.281401187
0.542521238 -0.391046286 0.390246868 0.556184113 -0.718578339 0.417497694
0.296190113 -0.531652212 0.390246838 0.420638919 -0.652294219 0.630535483
0.77512145 0.197865248 0.137880951 0.869203329 0.459757745 0.181957096
0.612834156 0.282199949 0.379853934 0.721414208 0.423703402 0.547756255
0.718452215 0.034346208 0.390246958 0.793664575 0.212829128 0.569912553
-0.0213729739 0.0604643226 0.775501966 0.178899989 0.0185004752 0.983693361
0.154557854 0.25070554 0.726014674 0.358030081 0.292497456 0.886712909
-0.197303802 0.25070554 0.726014674 -0.217337757 0.217811733 0.951484323
0.329623222 0.35486567 0.550111532 0.431056023 0.469823956 0.770361125
-0.0199215934 0.456194907 0.630965948 0.038536571 0.684337378 0.728146434
-0.404031873 0.415329993 0.595931351 -0.321491778 0.624088764 0.712149084
0.284662068 -0.0726658106 0.685516119 0.288116664 -0.0605570897 0.955678701
0.542521238 -0.155895084 0.554110706 0.579988837 -0.164644554 0.7978127
0.479051471 0.122287348 0.584073603 0.574914694 0.322602868 0.751931131
0 -0.235151142 0.685516119 0.00135009002 -0.378326178 0.925671399
0.0115280151 -0.458986402 0.554110706 -0.0523681417 -0.798590064 0.599592805
0.307598054 -0.34050113 0.594466627 0.331087023 -0.57350558 0.749314785
-0.306035042 -0.012201488 0.726014614 -0.381422788 -0.119255587 0.916675925
-0.552366197 -0.0750825107 0.584216118 -0.556224644 -0.368565232 0.744831443
-0.296070039 -0.320152879 0.584073544 -0.476534605 -0.61599946 0.627263367
-0.554911494 0.18275167 0.636287332 -0.42008543 0.129422262 0.898208261
0.0555216745 0.207180068 -0.725987017 0.182695702 0.235573202 -0.954530001
-0.0888671726 0.165701553 -0.730107188 0.0659507588 0.00979690254 -0.99777478
0.142405063 0.0363731273 -0.710975289 0.114422262 0.0035081997 -0.993426025
0.0626656711 0.440105885 -0.597337365 0.332552642 0.629269481 -0.702444732
-0.174808115 0.453466475 -0.684109926 0.0486435443 0.591116548 -0.805117965
0.0555775724 0.316034764 -0.637530088 0.273504794 0.445791215 -0.852329373
0.457622468 0.242019489 -0.635628879 0.267739713 0.523975849 -0.808557212
0.296323717 0.206896275 -0.659710765 0.194388136 0.34493643 -0.918276787
0.431474864 0.0949809328 -0.632757843 0.10220468 0.169809595 -0.98016274
0.147715762 0.568562746 -0.363079727 0.209819734 0.929005504 -0.304835111
-0.0874356702 0.569152236 -0.462479174 0.1150022 0.941164434 -0.317779958
0.0530778505 0.52142942 -0.481595576 0.29327786 0.790926039 -0.537051201
0.414072692 0.453519583 -0.386802405 0.411253422 0.812174797 -0.413814932
0.286380023 0.406140089 -0.473920375 0.300972432 0.720315933 -0.624948561
0.419575512 0.355973572 -0.491533101 0.361359656 0.732470691 -0.576979995
0.662214637 0.284960717 -0.409218699 0.527314901 0.713939786 -0.460683107
0.557723641 0.244802728 -0.50129354 0.455934078 0.708722532 -0.538364589
0.678400457 0.153186277 -0.527302384 0.602738619 0.503807545 -0.618776381
0.232449055 -0.0621402301 -0.709902227 0.0734967515 -0.0219258685 -0.997054458
0.087756902 -0.0942013189 -0.706335664 0.065624252 -0.17742157 -0.981944501
0.574849963 0.00706737814 -0.667488933 0.29635033 0.142227635 -0.944429874
0.41437465 -0.024576081 -0.679632068 0.113240428 0.170423508 -0.978842437
0.436495066 -0.237183586 -0.610616326 0.202848315 -0.604316831 -0.770489275
0.362798393 -0.159481525 -0.692217529 0.094807677 -0.374442846 -0.922390401
0.250927955 -0.264076084 -0.603798747 0.0110928006 -0.658893883 -0.752154171
0.776530385 0.0633623376 -0.453152269 0.908731103 0.111450307 -0.402227104
0.698269367 0.0428912193 -0.570667624 0.730249703 0.168019727 -0.662196875
0.736449063 -0.173476413 -0.482714117 0.831775904 -0.413297087 -0.370586693
0.679992497 -0.0946101621 -0.60094136 0.648319781 -0.256776452 -0.716761649
0.599041879 -0.18853879 -0.560137987 0.434974104 -0.53543365 -0.723953247
0.569421768 -0.361702234 -0.329034567 0.280923575 -0.906789541 -0.314347804
0.514355958 -0.339062691 -0.524983883 0.289605469 -0.771531999 -0.566451192
0.396546453 -0.395270437 -0.359716445 0.267077833 -0.899935484 -0.344652921
-0.0885537565 -0.140451387 -0.703436613 -0.0502563119 -0.564317644 -0.824026585
-0.177306175 -0.0495245382 -0.741589963 0.0504395552 -0.156408414 -0.986403704
0.0921900421 -0.328906834 -0.540496945 -0.0772689581 -0.735828161 -0.672745407
0.0159703549 -0.245869815 -0.611425102 -0.108379453 -0.700209796 -0.705662966
-0.308997154 -0.282246649 -0.517022908 -0.165890917 -0.751080573 -0.639029145
-0.244079202 -0.176526248 -0.605982721 -0.142682746 -0.724044025 -0.674834549
-0.40747413 -0.163758352 -0.595130444 -0.205225706 -0.729212761 -0.652787328
0.328436315 -0.491537243 -0.213358253 0.346672714 -0.83447504 -0.428333551
0.258207977 -0.444949239 -0.392608136 0.165653557 -0.866483092 -0.470920414
-0.0533951111 -0.480445504 -0.279094338 -0.0731186792 -0.82114172 -0.566021085
0.0221637916 -0.431384951 -0.397171885 -0.126258567 -0.831974149 -0.540257275
-0.217168376 -0.356405497 -0.418686926 -0.155990168 -0.791650057 -0.590726078
-0.448125422 -0.438465536 -0.322448969 -0.309109002 -0.757308602 -0.575269818
-0.377307862 -0.331835389 -0.39526096 -0.197526366 -0.720217526 -0.665033877
-0.51802206 -0.301779717 -0.375049621 -0.423121154 -0.627022028 -0.654073417
-0.415076405 0.0318963155 -0.758660555 -0.257230163 -0.0389408953 -0.965565264
-0.230912924 0.0845650062 -0.729062319 0.0301406831 0.0323385186 -0.999022365
-0.562524319 -0.139958903 -0.557406247 -0.396575719 -0.721241832 -0.567924261
-0.51031816 -0.0650271773 -0.687594593 -0.417932749 -0.445574194 -0.791704476
-0.696958244 0.101788275 -0.621162713 -0.549907207 0.0492857695 -0.833770275
-0.543853283 0.0760903358 -0.646349967 -0.456263125 0.0427746922 -0.888816178
-0.569596469 0.195605084 -0.629700065 -0.392548829 0.116643399 -0.91230458
-0.662034571 -0.272977561 -0.299116135 -0.605373442 -0.609687924 -0.51166755
-0.604359031 -0.209351942 -0.401494235 -0.463620692 -0.708930016 -0.531482935
-0.796470046 -0.0685186014 -0.325622767 -0.813289106 -0.379793137 -0.440815091
-0.712099612 -0.10949263 -0.48295635 -0.614786565 -0.624117613 -0.482197762
-0.778545439 0.000037481077 -0.498197615 -0.845935047 -0.261559397 -0.464737147
-0.873311162 0.16069077 -0.316814154 -0.881413698 0.0892942548 -0.463827997
-0.785068929 0.13727361 -0.461790085 -0.873742104 0.0646631345 -0.482071996
-0.78158313 0.255176514 -0.434037447 -0.881606281 0.216822907 -0.41923511
-0.322805107 0.257094413 -0.755677998 -0.132621706 0.148343116 -0.98000294
-0.599660516 0.330734998 -0.618113399 -0.387304664 0.373667896 -0.842832983
-0.46471563 0.289355874 -0.666875303 -0.418465495 0.269450843 -0.867342472
-0.32213378 0.454667151 -0.583472967 -0.220260754 0.755345643 -0.617201865
-0.329773873 0.388769895 -0.705121279 -0.231864989 0.535931826 -0.811797798
-0.773156941 0.368919969 -0.346563607 -0.881204844 0.312950492 -0.354316205
-0.73046416 0.362013191 -0.522733629 -0.687526047 0.46529597 -0.557501256
-0.585903883 0.538498759 -0.422421396 -0.470408946 0.674028993 -0.569561481
-0.576257169 0.425222695 -0.504267454 -0.382988244 0.662977874 -0.643257558
-0.465115607 0.503618181 -0.516583025 -0.283604205 0.66448617 -0.691394866
-0.231189862 0.604537487 -0.378873348 0.122168846 0.945258617 -0.30259046
-0.319568217 0.561270654 -0.4973768 -0.0939766988 0.818610013 -0.566609263
-0.331167608 0.670398891 -0.254484713 0.0737843066 0.965015173 -0.251597911
-0.100073986 0.619962752 -0.19786635 0.142215714 0.946922362 -0.288292587
-0.683817983 0.54523319 -0.221053258 -0.605415523 0.702913463 -0.373342454
-0.584122598 0.652270913 -0.230958566 -0.362291098 0.872809649 -0.327029705
-0.546829164 0.650805175 0.0631471351 -0.238946319 0.867093265 0.437097073
-0.448946983 0.686389744 -0.0551136024 -0.0319769792 0.996871948 0.0722763166
-0.299562633 0.659834385 0.045473747 -0.0571833625 0.986953557 0.150507793
-0.864042819 0.344151795 -0.163325816 -0.862826407 0.321634322 -0.389976889
-0.809416831 0.446528226 -0.238114998 -0.791574597 0.462623954 -0.39923501
-0.801192522 0.458135188 0.0584725216 -0.66878134 0.480564117 0.567265034
-0.809157908 0.556079745 -0.0434254669 -0.725024998 0.679111362 0.114657708
-0.680024028 0.563086629 0.0590844676 -0.498877764 0.634301603 0.59057802
-0.615121424 0.52890116 0.285930008 -0.489993364 0.832057893 0.259973526
-0.545714319 0.568138719 0.166391373 -0.420344144 0.818597436 0.391419202
-0.448790193 0.567713976 0.263848871 -0.238790199 0.904511213 0.353325337
-0.924302816 0.101286799 -0.189813316 -0.889648259 -0.0860440433 -0.448466748
-0.937056124 0.218825266 -0.166996777 -0.862661421 0.309250772 -0.400224
-0.845303118 -0.148501053 -0.211249411 -0.74191606 -0.547177732 -0.387501091
-0.90028739 -0.0351830386 -0.213408574 -0.849059165 -0.281736344 -0.446903795
-0.879373014 -0.0872860849 0.0159297287 -0.77129668 -0.451349705 0.448759139
-0.972011149 0.0276957434 -0.0703687593 -0.948432803 -0.316785276 -0.0110602826
-0.932543397 0.0457555838 0.035331741 -0.752976 -0.17435959 0.6345281
-0.613909781 -0.425754249 -0.207283214 -0.607795775 -0.681781232 -0.407134682
-0.666485786 -0.288017333 -0.213870957 -0.749755383 -0.617227793 -0.238530099
-0.662185609 -0.378895253 0.000164858575 -0.729883015 -0.68140763 0.0543539152
-0.770430148 -0.268148988 -0.10189826 -0.722911537 -0.680606067 -0.119055927
-0.795271993 -0.201952368 0.0108642057 -0.790410161 -0.547075808 0.275607944
-0.691396534 -0.243184313 0.215131253 -0.777594268 -0.521629572 0.35106951
-0.747733712 -0.187204063 0.109318659 -0.83763361 -0.437207639 0.327443808
-0.777942538 -0.128772393 0.230191991 -0.888282359 -0.426155835 0.17130588
-0.309813291 -0.509809315 -0.217870995 -0.183748111 -0.844604373 -0.502871871
-0.444016993 -0.459529161 -0.186473578 -0.277571887 -0.804847181 -0.52457118
0.113372222 -0.600902677 -0.127738222 0.0378399715 -0.941376388 -0.335229129
-0.131025285 -0.557866156 -0.173275322 -0.0134038664 -0.847846866 -0.530071616
-0.0508626662 -0.617090464 0.125587553 -0.0736580715 -0.993741751 0.0839749724
-0.149686441 -0.638498962 -0.064918071 -0.0722385347 -0.968348265 -0.238921136
-0.230443105 -0.591697037 0.0688756853 -0.261587322 -0.962498724 0.071890451
0.416312844 -0.516726553 -0.0828390941 0.334187448 -0.856659353 -0.393005759
0.281698614 -0.583778799 -0.118868642 0.28087163 -0.910769403 -0.30267182
0.294529617 -0.613454342 0.14218317 0.244188711 -0.965568006 -0.0897230655
0.197460219 -0.59053731 0.0146292951 0.149501309 -0.979212999 -0.137081444
0.129994184 -0.636703968 0.130607188 0.0231702439 -0.998470902 -0.050191097
0.117601275 -0.621870875 0.300400943 -0.0289558396 -0.962979257 0.268015772
0.0423421003 -0.602967739 0.250927418 -0.0463946871 -0.993402183 -0.104878627
-0.0677624717 -0.640478373 0.306540012 -0.0860849917 -0.92571336 0.368298918
0.649157166 -0.358267009 -0.29739067 0.607323587 -0.767047822 -0.206871286
0.539870083 -0.440606564 -0.151671067 0.329765409 -0.868791521 -0.369399518
0.751384318 -0.120002165 -0.300774664 0.946222663 -0.301136434 -0.118234344
0.715162337 -0.23156625 -0.303391963 0.891040981 -0.444840044 -0.0903509557
0.76364857 -0.281410187 -0.00614104513 0.810040116 -0.559069395 -0.176851705
0.685089886 -0.305915743 -0.124692149 0.790607989 -0.594688416 -0.145892397
0.653604984 -0.375057757 0.00554393325 0.742501616 -0.654747605 -0.141410515
0.809756339 0.126438677 -0.273771346 0.969060779 0.239830866 -0.0583304688
0.796446919 0.00409404282 -0.296441138 0.982570887 -0.149718881 -0.110176265
0.826973557 -0.010161669 0.0054916814 0.996785462 0.0745140389 -0.0294366181
0.807881117 -0.069178313 -0.127318472 0.974336326 -0.181521714 -0.133111179
0.800304174 -0.140329242 -0.00640830444 0.970935941 -0.213546693 -0.108079135
0.741857648 -0.134340554 0.221330196 0.880738914 -0.246851221 0.404182434
0.804847598 -0.227230728 0.130248263 0.892264843 -0.338877887 0.298370928
0.69323504 -0.259320855 0.222794548 0.773612559 -0.485122144 0.407651752
0.637656212 0.368589461 -0.255431116 0.598775566 0.743046105 -0.298915118
0.73024404 0.246489868 -0.26780805 0.808059394 0.580340207 -0.101218939
0.369710505 0.489069819 -0.249570221 0.406645209 0.848603606 -0.338395447
0.494995773 0.42789495 -0.252402872 0.421882927 0.832967103 -0.358023167
0.557943583 0.489327341 -0.0117572462 0.601675391 0.79849577 0.0197810642
0.614201248 0.44650051 -0.130974412 0.624044418 0.757114649 -0.193251222
0.657777131 0.374673814 -0.000092472852 0.82597208 0.556567609 0.0894568041
0.0885159075 0.608783305 -0.222445309 0.117521577 0.956168175 -0.268199682
0.227980286 0.562457144 -0.244602442 0.319451988 0.897977412 -0.302633435
0.262249321 0.637138426 0.00173124194 0.232685477 0.972421587 0.0159331355
0.334900886 0.591878355 -0.130133003 0.328730524 0.883051157 -0.334898323
0.414197266 0.573382258 -0.00929876883 0.441379786 0.897317052 -0.00244478439
0.393920064 0.549215257 0.233758554 0.448436469 0.834190428 0.320984632
0.480142713 0.522579193 0.120095909 0.514571726 0.838923216 0.177267179
0.524181724 0.448272884 0.224384055 0.57391721 0.739466965 0.351863325
-0.0115370601 0.652855635 -0.0934257507 0.120218828 0.970395505 -0.209475622
-0.210215285 0.654034674 0.171177775 -0.182741731 0.974898815 0.127191588
-0.10916391 0.685709715 0.0553262681 -0.00331282103 0.999852598 -0.0168484226
0.14992319 0.626279235 0.150778964 0.254113197 0.957328975 0.137650445
0.0758849978 0.651889741 0.0355429016 0.167944565 0.983393192 -0.068791762
-0.332613796 0.540768087 0.388354301 -0.270802289 0.866219223 0.419917136
-0.283149868 0.604144871 0.286522448 -0.302030623 0.881112933 0.363892019
-0.0205450933 0.598330677 0.422744572 0.0265245475 0.895754337 0.443757236
-0.0968069807 0.685076535 0.316000462 -0.0402532555 0.946214974 0.321024746
0.0504463576 0.624131262 0.296486288 0.246026352 0.940283537 0.235239923
0.271982372 0.512815833 0.366606802 0.457889944 0.769013166 0.446044296
0.232551455 0.601852834 0.27523461 0.314822644 0.921365142 0.22797583
-0.933301091 0.284346879 -0.0558252223 -0.926766515 0.366390705 0.0828344524
-0.811873674 0.0678749382 0.126967445 -0.896435142 -0.108509079 0.429685742
-0.907130897 0.176988542 0.0441055708 -0.758576691 0.113202326 0.641674876
-0.766188264 0.346673667 0.162402049 -0.820774734 0.390264869 0.417159706
-0.879257202 0.314719945 0.0520350747 -0.803543508 0.243289798 0.54325664
-0.770984232 -0.040276017 0.395054817 -0.815437794 -0.319111615 0.482937813
-0.792498171 0.0274002422 0.26999104 -0.976612985 -0.158598676 0.145167023
-0.746716797 0.23195751 0.438853949 -0.796850324 0.296358317 0.526499093
-0.828766882 0.158542916 0.302945048 -0.980014861 0.0668128654 0.187368646
-0.772884309 0.276381046 0.29896459 -0.873346031 0.430080771 0.228685826
-0.612078249 0.450513601 0.415952146 -0.499492645 0.639420986 0.584506631
-0.695998669 0.42115891 0.304524869 -0.799723685 0.526766896 0.288025826
-0.482256263 -0.530462444 -0.120030552 -0.409583122 -0.881391108 -0.235353887
-0.308652312 -0.567668676 0.194394514 -0.304332882 -0.949351549 0.0781862214
-0.397155911 -0.539409995 0.0121145174 -0.326501071 -0.942556739 0.0705956146
-0.596073925 -0.425411522 0.127393574 -0.683366954 -0.710435271 0.168200552
-0.553644896 -0.483754158 0.0118038766 -0.561586499 -0.825819075 0.0514137559
-0.132231146 -0.537477493 0.347159535 -0.105637982 -0.668637514 0.736046433
-0.21444574 -0.574175954 0.319047958 -0.2565009 -0.838501275 0.480752468
-0.410005599 -0.444523245 0.382358998 -0.360785276 -0.651214838 0.6676476
-0.390629083 -0.532460749 0.266480297 -0.353122175 -0.874532938 0.332410634
-0.523305416 -0.469615549 0.270775408 -0.590130568 -0.727196634 0.350615263
-0.595075011 -0.257246882 0.338331819 -0.714634836 -0.523963571 0.463421285
-0.616174102 -0.345692635 0.24569346 -0.772523522 -0.479629338 0.416128665
0.497095525 -0.5208413 -0.0497581176 0.337543398 -0.873826683 -0.349987805
0.616514802 -0.45520106 0.13925752 0.679436445 -0.701720536 0.214369595
0.563268125 -0.499740332 0.0166006293 0.609345376 -0.788837433 -0.0802100152
0.353381366 -0.579956114 0.203224972 0.46288237 -0.864082217 0.197741568
0.431937158 -0.569717407 0.0849767625 0.367683083 -0.929820776 -0.0155696413
0.622975707 -0.290963173 0.359680623 0.749680161 -0.549851358 0.368297637
0.614772141 -0.354717731 0.25029853 0.719242811 -0.573910177 0.391557157
0.406006753 -0.439634562 0.373804241 0.429269254 -0.771055698 0.470320016
0.508520186 -0.453933865 0.264354974 0.498199314 -0.754491508 0.427246869
0.386781245 -0.521809816 0.26352182 0.558836222 -0.702824831 0.440158367
0.155790418 -0.580571771 0.373152107 -0.00613071304 -0.752821207 0.658196568
0.267722368 -0.615904868 0.33893472 0.332290411 -0.822100461 0.462313801
0.763913274 0.195429817 -0.114941739 0.907089889 0.412196398 0.0853345022
0.683680654 0.30529964 0.123936236 0.848042309 0.503400087 0.165567666
0.718799353 0.248506784 0.0103264879 0.889283538 0.45550704 0.041087538
0.810352087 0.0586486422 0.133210719 0.958139181 0.217933968 0.185671955
0.772109985 0.124188557 0.00981889758 0.932908714 0.360034078 -0.00753397448
0.516903996 0.368178457 0.35090822 0.546125531 0.650479078 0.527848423
0.627525628 0.368616074 0.254912436 0.736604393 0.575288057 0.35560903
0.64336127 0.148905188 0.368802667 0.768126905 0.356314838 0.531997085
0.667213202 0.224789277 0.246584162 0.832567036 0.380178422 0.402860194
0.733403027 0.112209171 0.258186489 0.821407676 0.369305313 0.434629679
0.715616643 -0.0827866942 0.363215923 0.872533202 -0.138171598 0.468609005
0.769597709 -0.0244460292 0.256395847 0.921077609 -0.0403139517 0.387286633
-0.0201383121 0.256809235 0.744896472 0.0313802883 0.223740563 0.974143505
0.0655523166 0.15469873 0.74418956 0.19224675 0.0167001877 0.98120445
-0.109171979 0.155242071 0.747964501 -0.0486986302 0.18888025 0.980791926
0.148319632 0.390503168 0.572628975 0.374807984 0.528355956 0.761812925
0.233025745 0.29178232 0.618132234 0.459189117 0.54544127 0.701169789
0.0682158396 0.355953097 0.682891786 0.320441872 0.591466486 0.739921868
-0.208064407 0.415895641 0.589540362 -0.155950606 0.719384253 0.676879466
-0.109962933 0.369894236 0.708593667 -0.106597669 0.553716183 0.825854361
-0.301965803 0.335506558 0.665659368 -0.3079063 0.43288371 0.847234011
0.384997785 0.415102422 0.444117814 0.516465545 0.660506725 0.544971883
0.234341338 0.48670882 0.493715584 0.466756433 0.642676771 0.607540071
0.0621706508 0.556268096 0.549898028 0.138117969 0.720833004 0.679207683
-0.09580715 0.524778426 0.523842096 -0.165269375 0.742529213 0.649104178
-0.287042677 0.506980181 0.508476913 -0.240019873 0.776625037 0.582446575
-0.446993649 0.453171432 0.471133173 -0.301467717 0.772347033 0.559104025
0.215124369 0.0876811817 0.691549778 0.290893495 -0.00071401865 0.956755221
0.126969337 -0.00357493479 0.704400957 0.25877735 -0.0485336408 0.964716971
0.516416192 -0.0167715196 0.576948225 0.595112145 0.0541841015 0.8018139
0.411602497 -0.1134957 0.616006613 0.41875723 -0.132455051 0.898386419
0.387138247 0.0253628232 0.645435512 0.398729414 0.0470285006 0.915861964
0.3921808 0.228954181 0.549134791 0.494559258 0.446052015 0.745954931
0.312533975 0.183709249 0.646117568 0.464369178 0.348474205 0.814203262
0.634535313 -0.180022269 0.450752825 0.746468067 -0.26160568 0.61183989
0.629394293 -0.0606938154 0.471134633 0.711965978 0.0173498001 0.701999605
0.583608329 0.0745430887 0.472080022 0.689643085 0.262152702 0.675032139
0.54088068 0.199194461 0.476463616 0.628962457 0.344526798 0.696927249
0.466951162 0.314435214 0.460398912 0.537325323 0.499716222 0.679385841
0.145952374 -0.159977987 0.707021415 0.162662342 -0.17796275 0.970499992
-0.0105023906 -0.089921847 0.741709471 0.117660999 -0.244741723 0.96242255
0.160733476 -0.405148447 0.581035435 0.162723213 -0.679459393 0.715441167
0.00563919079 -0.351054281 0.625766635 -0.00984856766 -0.545182228 0.838259697
0.157857046 -0.300227046 0.663731337 0.121912435 -0.443386167 0.888001204
0.430083841 -0.252370954 0.583339691 0.426958829 -0.373469025 0.823545456
0.29975155 -0.210425213 0.650343955 0.337956727 -0.255494505 0.90581882
0.0128581012 -0.505830705 0.426702082 -0.132955328 -0.815628231 0.563092709
0.154008374 -0.496177703 0.472909391 0.111021727 -0.787849665 0.605778039
0.29951179 -0.430831373 0.486849099 0.356805831 -0.72108233 0.593910575
0.424767107 -0.365390599 0.491913527 0.387355715 -0.701433718 0.598286211
0.555299819 -0.28282842 0.486459851 0.609841287 -0.478707641 0.631611049
-0.155419245 -0.128834337 0.722363114 -0.113930635 -0.342811793 0.932469845
-0.167461008 0.0202823356 0.781652272 -0.125917435 -0.0661704391 0.989831388
-0.412319303 -0.185403123 0.563804805 -0.492280781 -0.521992087 0.696551323
-0.430444539 -0.0444552787 0.657613873 -0.463586301 -0.230214387 0.855622053
-0.308871627 -0.176083282 0.678027511 -0.409595728 -0.402277976 0.818781853
-0.145091474 -0.399707675 0.581098676 -0.242863834 -0.72724086 0.641979694
-0.153491348 -0.293856621 0.663998604 -0.13510491 -0.489548534 0.861445844
-0.634978175 -0.131030232 0.46149525 -0.638617337 -0.479114532 0.602176964
-0.540427864 -0.221801326 0.480670363 -0.540315926 -0.536753833 0.648038745
-0.401126266 -0.328888804 0.46412462 -0.414091051 -0.574267387 0.706219196
-0.282758355 -0.399381846 0.466382653 -0.354768574 -0.692421556 0.628244936
-0.133389056 -0.471341401 0.455732971 -0.190985844 -0.833465099 0.518517375
-0.255030364 0.120062724 0.741236925 -0.324788451 0.157920077 0.932509363
-0.467595607 0.288106084 0.593036473 -0.375324249 0.388118953 0.841721594
-0.370610088 0.212986216 0.665904224 -0.346638173 0.222466841 0.91123569
-0.552801251 0.0539970249 0.609004617 -0.544693828 -0.141664177 0.826583266
-0.418684483 0.0858753845 0.653594255 -0.374043286 0.0125590814 0.927326262
-0.54444617 0.376962185 0.511722207 -0.434436738 0.571348011 0.696294606
-0.634075582 0.269226164 0.547761917 -0.556283295 0.378814012 0.739627481
-0.66153872 0.148442402 0.52702862 -0.675260365 -0.0647953227 0.7347278
-0.653106928 0.0241840407 0.495810091 -0.646048307 -0.215820387 0.73214972
3 2 92 94 
3 4 95 97 
3 5 98 100 
3 7 101 103 
3 8 104 106 
3 9 107 109 
3 2 99 92 
3 4 105 95 
3 5 108 98 
3 10 110 111 
3 11 112 113 
3 12 114 116 
3 13 117 118 
3 14 119 121 
3 15 122 124 
3 10 115 110 
3 11 120 112 
3 12 123 114 
3 16 125 126 
3 17 127 128 
3 18 129 131 
3 19 132 133 
3 20 134 136 
3 21 137 139 
3 16 130 125 
3 17 135 127 
3 18 138 129 
3 22 140 141 
3 23 142 143 
3 24 144 146 
3 25 147 148 
3 26 149 151 
3 27 152 154 
3 22 145 140 
3 23 150 142 
3 24 153 144 
3 1 155 93 
3 28 156 157 
3 3 158 96 
3 29 160 161 
3 30 162 164 
3 6 165 102 
3 1 159 155 
3 28 163 156 
3 3 166 158 
3 31 167 168 
3 32 169 170 
3 33 171 173 
3 34 174 175 
3 35 176 178 
3 36 179 181 
3 31 172 167 
3 32 177 169 
3 33 180 171 
3 37 182 183 
3 38 184 185 
3 39 186 188 
3 40 189 190 
3 41 191 193 
3 42 194 196 
3 37 187 182 
3 38 192 184 
3 39 195 186 
3 43 197 198 
3 44 199 200 
3 45 201 203 
3 46 204 205 
3 47 206 208 
3 48 209 211 
3 43 202 197 
3 44 207 199 
3 45 210 201 
3 49 212 213 
3 50 214 215 
3 51 216 218 
3 52 219 220 
3 53 221 223 
3 54 224 226 
3 49 217 212 
3 50 222 214 
3 51 225 216 
3 55 227 228 
3 56 229 230 
3 57 231 233 
3 58 234 235 
3 59 236 238 
3 60 239 241 
3 55 232 227 
3 56 237 229 
3 57 240 231 
3 58 242 234 
3 61 243 244 
3 59 245 236 
3 62 247 248 
3 63 249 251 
3 60 252 239 
3 58 246 242 
3 61 250 243 
3 59 253 245 
3 34 254 174 
3 64 255 256 
3 35 257 176 
3 65 259 260 
3 66 261 263 
3 36 264 179 
3 34 258 254 
3 64 262 255 
3 35 265 257 
3 40 266 189 
3 67 267 268 
3 41 269 191 
3 68 271 272 
3 69 273 275 
3 42 276 194 
3 40 270 266 
3 67 274 267 
3 41 277 269 
3 46 278 204 
3 70 279 280 
3 47 281 206 
3 71 283 284 
3 72 285 287 
3 48 288 209 
3 46 282 278 
3 70 286 279 
3 47 289 281 
3 52 290 219 
3 73 291 292 
3 53 293 221 
3 74 295 296 
3 75 297 299 
3 54 300 224 
3 52 294 290 
3 73 298 291 
3 53 301 293 
3 78 302 304 
3 80 305 307 
3 81 308 310 
3 63 252 312 
3 62 249 314 
3 36 247 316 
3 78 309 302 
3 80 313 305 
3 81 315 308 
3 77 317 303 
3 84 319 321 
3 79 322 306 
3 75 300 325 
3 74 297 327 
3 60 295 311 
3 77 323 317 
3 84 326 319 
3 79 328 322 
3 82 329 318 
3 87 331 333 
3 83 334 320 
3 72 288 337 
3 71 285 339 
3 54 283 324 
3 82 335 329 
3 87 338 331 
3 83 340 334 
3 85 341 330 
3 90 343 345 
3 86 346 332 
3 69 276 349 
3 68 273 351 
3 48 271 336 
3 85 347 341 
3 90 350 343 
3 86 352 346 
3 88 353 342 
3 91 354 355 
3 89 356 344 
3 66 264 358 
3 65 261 360 
3 42 259 348 
3 88 357 353 
3 91 359 354 
3 89 361 356 
3 92 1 93 
3 94 93 0 
3 92 93 94 
3 95 3 96 
3 97 96 1 
3 95 96 97 
3 98 4 99 
3 100 99 2 
3 98 99 100 
3 101 6 102 
3 103 102 3 
3 101 102 103 
3 104 7 105 
3 106 105 4 
3 104 105 106 
3 107 8 108 
3 109 108 5 
3 107 108 109 
3 99 4 97 
3 92 97 1 
3 99 97 92 
3 105 7 103 
3 95 103 3 
3 105 103 95 
3 108 8 106 
3 98 106 4 
3 108 106 98 
3 110 2 94 
3 111 94 0 
3 110 94 111 
3 112 5 100 
3 113 100 2 
3 112 100 113 
3 114 11 115 
3 116 115 10 
3 114 115 116 
3 117 9 109 
3 118 109 5 
3 117 109 118 
3 119 13 120 
3 121 120 11 
3 119 120 121 
3 122 14 123 
3 124 123 12 
3 122 123 124 
3 115 11 113 
3 110 113 2 
3 115 113 110 
3 120 13 118 
3 112 118 5 
3 120 118 112 
3 123 14 121 
3 114 121 11 
3 123 121 114 
3 125 10 111 
3 126 111 0 
3 125 111 126 
3 127 12 116 
3 128 116 10 
3 127 116 128 
3 129 17 130 
3 131 130 16 
3 129 130 131 
3 132 15 124 
3 133 124 12 
3 132 124 133 
3 134 19 135 
3 136 135 17 
3 134 135 136 
3 137 20 138 
3 139 138 18 
3 137 138 139 
3 130 17 128 
3 125 128 10 
3 130 128 125 
3 135 19 133 
3 127 133 12 
3 135 133 127 
3 138 20 136 
3 129 136 17 
3 138 136 129 
3 140 16 126 
3 141 126 0 
3 140 126 141 
3 142 18 131 
3 143 131 16 
3 142 131 143 
3 144 23 145 
3 146 145 22 
3 144 145 146 
3 147 21 139 
3 148 139 18 
3 147 139 148 
3 149 25 150 
3 151 150 23 
3 149 150 151 
3 152 26 153 
3 154 153 24 
3 152 153 154 
3 145 23 143 
3 140 143 16 
3 145 143 140 
3 150 25 148 
3 142 148 18 
3 150 148 142 
3 153 26 151 
3 144 151 23 
3 153 151 144 
3 155 22 141 
3 93 141 0 
3 155 141 93 
3 156 24 146 
3 157 146 22 
3 156 146 157 
3 158 28 159 
3 96 159 1 
3 158 159 96 
3 160 27 154 
3 161 154 24 
3 160 154 161 
3 162 29 163 
3 164 163 28 
3 162 163 164 
3 165 30 166 
3 102 166 3 
3 165 166 102 
3 159 28 157 
3 155 157 22 
3 159 157 155 
3 163 29 161 
3 156 161 24 
3 163 161 156 
3 166 30 164 
3 158 164 28 
3 166 164 158 
3 167 30 165 
3 168 165 6 
3 167 165 168 
3 169 29 162 
3 170 162 30 
3 169 162 170 
3 171 32 172 
3 173 172 31 
3 171 172 173 
3 174 27 160 
3 175 160 29 
3 174 160 175 
3 176 34 177 
3 178 177 32 
3 176 177 178 
3 179 35 180 
3 181 180 33 
3 179 180 181 
3 172 32 170 
3 167 170 30 
3 172 170 167 
3 177 34 175 
3 169 175 29 
3 177 175 169 
3 180 35 178 
3 171 178 32 
3 180 178 171 
3 182 26 152 
3 183 152 27 
3 182 152 183 
3 184 25 149 
3 185 149 26 
3 184 149 185 
3 186 38 187 
3 188 187 37 
3 186 187 188 
3 189 21 147 
3 190 147 25 
3 189 147 190 
3 191 40 192 
3 193 192 38 
3 191 192 193 
3 194 41 195 
3 196 195 39 
3 194 195 196 
3 187 38 185 
3 182 185 26 
3 187 185 182 
3 192 40 190 
3 184 190 25 
3 192 190 184 
3 195 41 193 
3 186 193 38 
3 195 193 186 
3 197 20 137 
3 198 137 21 
3 197 137 198 
3 199 19 134 
3 200 134 20 
3 199 134 200 
3 201 44 202 
3 203 202 43 
3 201 202 203 
3 204 15 132 
3 205 132 19 
3 204 132 205 
3 206 46 207 
3 208 207 44 
3 206 207 208 
3 209 47 210 
3 211 210 45 
3 209 210 211 
3 202 44 200 
3 197 200 20 
3 202 200 197 
3 207 46 205 
3 199 205 19 
3 207 205 199 
3 210 47 208 
3 201 208 44 
3 210 208 201 
3 212 14 122 
3 213 122 15 
3 212 122 213 
3 214 13 119 
3 215 119 14 
3 214 119 215 
3 216 50 217 
3 218 217 49 
3 216 217 218 
3 219 9 117 
3 220 117 13 
3 219 117 220 
3 221 52 222 
3 223 222 50 
3 221 222 223 
3 224 53 225 
3 226 225 51 
3 224 225 226 
3 217 50 215 
3 212 215 14 
3 217 215 212 
3 222 52 220 
3 214 220 13 
3 222 220 214 
3 225 53 223 
3 216 223 50 
3 225 223 216 
3 227 8 107 
3 228 107 9 
3 227 107 228 
3 229 7 104 
3 230 104 8 
3 229 104 230 
3 231 56 232 
3 233 232 55 
3 231 232 233 
3 234 6 101 
3 235 101 7 
3 234 101 235 
3 236 58 237 
3 238 237 56 
3 236 237 238 
3 239 59 240 
3 241 240 57 
3 239 240 241 
3 232 56 230 
3 227 230 8 
3 232 230 227 
3 237 58 235 
3 229 235 7 
3 237 235 229 
3 240 59 238 
3 231 238 56 
3 240 238 231 
3 242 31 168 
3 234 168 6 
3 242 168 234 
3 243 33 173 
3 244 173 31 
3 243 173 244 
3 245 61 246 
3 236 246 58 
3 245 246 236 
3 247 36 181 
3 248 181 33 
3 247 181 248 
3 249 62 250 
3 251 250 61 
3 249 250 251 
3 252 63 253 
3 239 253 59 
3 252 253 239 
3 246 61 244 
3 242 244 31 
3 246 244 242 
3 250 62 248 
3 243 248 33 
3 250 248 243 
3 253 63 251 
3 245 251 61 
3 253 251 245 
3 254 37 183 
3 174 183 27 
3 254 183 174 
3 255 39 188 
3 256 188 37 
3 255 188 256 
3 257 64 258 
3 176 258 34 
3 257 258 176 
3 259 42 196 
3 260 196 39 
3 259 196 260 
3 261 65 262 
3 263 262 64 
3 261 262 263 
3 264 66 265 
3 179 265 35 
3 264 265 179 
3 258 64 256 
3 254 256 37 
3 258 256 254 
3 262 65 260 
3 255 260 39 
3 262 260 255 
3 265 66 263 
3 257 263 64 
3 265 263 257 
3 266 43 198 
3 189 198 21 
3 266 198 189 
3 267 45 203 
3 268 203 43 
3 267 203 268 
3 269 67 270 
3 191 270 40 
3 269 270 191 
3 271 48 211 
3 272 211 45 
3 271 211 272 
3 273 68 274 
3 275 274 67 
3 273 274 275 
3 276 69 277 
3 194 277 41 
3 276 277 194 
3 270 67 268 
3 266 268 43 
3 270 268 266 
3 274 68 272 
3 267 272 45 
3 274 272 267 
3 277 69 275 
3 269 275 67 
3 277 275 269 
3 278 49 213 
3 204 213 15 
3 278 213 204 
3 279 51 218 
3 280 218 49 
3 279 218 280 
3 281 70 282 
3 206 282 46 
3 281 282 206 
3 283 54 226 
3 284 226 51 
3 283 226 284 
3 285 71 286 
3 287 286 70 
3 285 286 287 
3 288 72 289 
3 209 289 47 
3 288 289 209 
3 282 70 280 
3 278 280 49 
3 282 280 278 
3 286 71 284 
3 279 284 51 
3 286 284 279 
3 289 72 287 
3 281 287 70 
3 289 287 281 
3 290 55 228 
3 219 228 9 
3 290 228 219 
3 291 57 233 
3 292 233 55 
3 291 233 292 
3 293 73 294 
3 221 294 52 
3 293 294 221 
3 295 60 241 
3 296 241 57 
3 295 241 296 
3 297 74 298 
3 299 298 73 
3 297 298 299 
3 300 75 301 
3 224 301 53 
3 300 301 224 
3 294 73 292 
3 290 292 55 
3 294 292 290 
3 298 74 296 
3 291 296 57 
3 298 296 291 
3 301 75 299 
3 293 299 73 
3 301 299 293 
3 302 77 303 
3 304 303 76 
3 302 303 304 
3 305 79 306 
3 307 306 77 
3 305 306 307 
3 308 80 309 
3 310 309 78 
3 308 309 310 
3 252 60 311 
3 312 311 79 
3 252 311 312 
3 249 63 313 
3 314 313 80 
3 249 313 314 
3 247 62 315 
3 316 315 81 
3 247 315 316 
3 309 80 307 
3 302 307 77 
3 309 307 302 
3 313 63 312 
3 305 312 79 
3 313 312 305 
3 315 62 314 
3 308 314 80 
3 315 314 308 
3 317 82 318 
3 303 318 76 
3 317 318 303 
3 319 83 320 
3 321 320 82 
3 319 320 321 
3 322 84 323 
3 306 323 77 
3 322 323 306 
3 300 54 324 
3 325 324 83 
3 300 324 325 
3 297 75 326 
3 327 326 84 
3 297 326 327 
3 295 74 328 
3 311 328 79 
3 295 328 311 
3 323 84 321 
3 317 321 82 
3 323 321 317 
3 326 75 325 
3 319 325 83 
3 326 325 319 
3 328 74 327 
3 322 327 84 
3 328 327 322 
3 329 85 330 
3 318 330 76 
3 329 330 318 
3 331 86 332 
3 333 332 85 
3 331 332 333 
3 334 87 335 
3 320 335 82 
3 334 335 320 
3 288 48 336 
3 337 336 86 
3 288 336 337 
3 285 72 338 
3 339 338 87 
3 285 338 339 
3 283 71 340 
3 324 340 83 
3 283 340 324 
3 335 87 333 
3 329 333 85 
3 335 333 329 
3 338 72 337 
3 331 337 86 
3 338 337 331 
3 340 71 339 
3 334 339 87 
3 340 339 334 
3 341 88 342 
3 330 342 76 
3 341 342 330 
3 343 89 344 
3 345 344 88 
3 343 344 345 
3 346 90 347 
3 332 347 85 
3 346 347 332 
3 276 42 348 
3 349 348 89 
3 276 348 349 
3 273 69 350 
3 351 350 90 
3 273 350 351 
3 271 68 352 
3 336 352 86 
3 271 352 336 
3 347 90 345 
3 341 345 88 
3 347 345 341 
3 350 69 349 
3 343 349 89 
3 350 349 343 
3 352 68 351 
3 346 351 90 
3 352 351 346 
3 353 78 304 
3 342 304 76 
3 353 304 342 
3 354 81 310 
3 355 310 78 
3 354 310 355 
3 356 91 357 
3 344 357 88 
3 356 357 344 
3 264 36 316 
3 358 316 81 
3 264 316 358 
3 261 66 359 
3 360 359 91 
3 261 359 360 
3 259 65 361 
3 348 361 89 
3 259 361 348 
3 357 91 355 
3 353 355 78 
3 357 355 353 
3 359 66 358 
3 354 358 81 
3 359 358 354 
3 361 65 360 
3 356 360 91 
3 361 360 356 
